<?xml version="1.0" encoding="UTF-8"?>
<!DOCTYPE svg
PUBLIC "-//W3C//DTD SVG 1.1//EN"
       "http://www.w3.org/Graphics/SVG/1.1/DTD/svg11.dtd">
<svg viewBox="97 0 1008 748" width="911px" height="748px" xmlns="http://www.w3.org/2000/svg" version="1.1">
   <line x1="485" y1="663" x2="495" y2="663" style="stroke:#cb0;stroke-width:1;"/>
   <line x1="732" y1="612" x2="742" y2="612" style="stroke:#cb0;stroke-width:1;"/>
   <line x1="495" y1="663" x2="732" y2="612" style="stroke:#cb0;stroke-width:1;"/>
   <line x1="492.5" y1="663" x2="488.96446609407" y2="666.53553390593" style="stroke:#cb0;stroke-width:2;"/>
   <line x1="492.5" y1="663" x2="488.96446609407" y2="659.46446609407" style="stroke:#cb0;stroke-width:2;"/>
   <line x1="737" y1="612" x2="733.46446609407" y2="615.53553390593" style="stroke:#cb0;stroke-width:2;"/>
   <line x1="737" y1="612" x2="733.46446609407" y2="608.46446609407" style="stroke:#cb0;stroke-width:2;"/>
   <line x1="835" y1="632" x2="845" y2="632" style="stroke:#c00;stroke-width:1;"/>
   <line x1="902" y1="338" x2="912" y2="338" style="stroke:#c00;stroke-width:1;"/>
   <line x1="845" y1="632" x2="902" y2="338" style="stroke:#c00;stroke-width:1;"/>
   <line x1="842.5" y1="632" x2="838.96446609407" y2="635.53553390593" style="stroke:#c00;stroke-width:2;"/>
   <line x1="842.5" y1="632" x2="838.96446609407" y2="628.46446609407" style="stroke:#c00;stroke-width:2;"/>
   <line x1="907" y1="338" x2="903.46446609407" y2="341.53553390593" style="stroke:#c00;stroke-width:2;"/>
   <line x1="907" y1="338" x2="903.46446609407" y2="334.46446609407" style="stroke:#c00;stroke-width:2;"/>
   <line x1="858" y1="89" x2="848" y2="89" style="stroke:#cb0;stroke-width:1;"/>
   <line x1="657" y1="213" x2="647" y2="213" style="stroke:#cb0;stroke-width:1;"/>
   <line x1="848" y1="89" x2="657" y2="213" style="stroke:#cb0;stroke-width:1;"/>
   <line x1="850.5" y1="89" x2="854.03553390593" y2="92.535533905933" style="stroke:#cb0;stroke-width:2;"/>
   <line x1="850.5" y1="89" x2="854.03553390593" y2="85.464466094067" style="stroke:#cb0;stroke-width:2;"/>
   <line x1="652" y1="213" x2="655.53553390593" y2="216.53553390593" style="stroke:#cb0;stroke-width:2;"/>
   <line x1="652" y1="213" x2="655.53553390593" y2="209.46446609407" style="stroke:#cb0;stroke-width:2;"/>
   <line x1="858" y1="69" x2="848" y2="69" style="stroke:#c00;stroke-width:1;"/>
   <line x1="845" y1="612" x2="835" y2="612" style="stroke:#c00;stroke-width:1;"/>
   <line x1="848" y1="69" x2="845" y2="612" style="stroke:#c00;stroke-width:1;"/>
   <line x1="850.5" y1="69" x2="854.03553390593" y2="72.535533905933" style="stroke:#c00;stroke-width:2;"/>
   <line x1="850.5" y1="69" x2="854.03553390593" y2="65.464466094067" style="stroke:#c00;stroke-width:2;"/>
   <line x1="840" y1="612" x2="843.53553390593" y2="615.53553390593" style="stroke:#c00;stroke-width:2;"/>
   <line x1="840" y1="612" x2="843.53553390593" y2="608.46446609407" style="stroke:#c00;stroke-width:2;"/>
   <line x1="231" y1="594" x2="241" y2="594" style="stroke:#c00;stroke-width:1;"/>
   <line x1="394" y1="643" x2="404" y2="643" style="stroke:#c00;stroke-width:1;"/>
   <line x1="241" y1="594" x2="394" y2="643" style="stroke:#c00;stroke-width:1;"/>
   <line x1="238.5" y1="594" x2="234.96446609407" y2="597.53553390593" style="stroke:#c00;stroke-width:2;"/>
   <line x1="238.5" y1="594" x2="234.96446609407" y2="590.46446609407" style="stroke:#c00;stroke-width:2;"/>
   <line x1="399" y1="643" x2="395.46446609407" y2="646.53553390593" style="stroke:#c00;stroke-width:2;"/>
   <line x1="399" y1="643" x2="395.46446609407" y2="639.46446609407" style="stroke:#c00;stroke-width:2;"/>
   <line x1="564" y1="65" x2="574" y2="65" style="stroke:#b0b;stroke-width:1;"/>
   <line x1="558" y1="213" x2="568" y2="213" style="stroke:#b0b;stroke-width:1;"/>
   <line x1="574" y1="65" x2="558" y2="213" style="stroke:#b0b;stroke-width:1;"/>
   <line x1="571.5" y1="65" x2="567.96446609407" y2="68.535533905933" style="stroke:#b0b;stroke-width:2;"/>
   <line x1="571.5" y1="65" x2="567.96446609407" y2="61.464466094067" style="stroke:#b0b;stroke-width:2;"/>
   <line x1="563" y1="213" x2="559.46446609407" y2="216.53553390593" style="stroke:#b0b;stroke-width:2;"/>
   <line x1="563" y1="213" x2="559.46446609407" y2="209.46446609407" style="stroke:#b0b;stroke-width:2;"/>
   <line x1="451" y1="45" x2="441" y2="45" style="stroke:#cb0;stroke-width:1;"/>
   <line x1="203" y1="47" x2="193" y2="47" style="stroke:#cb0;stroke-width:1;"/>
   <line x1="441" y1="45" x2="203" y2="47" style="stroke:#cb0;stroke-width:1;"/>
   <line x1="443.5" y1="45" x2="447.03553390593" y2="48.535533905933" style="stroke:#cb0;stroke-width:2;"/>
   <line x1="443.5" y1="45" x2="447.03553390593" y2="41.464466094067" style="stroke:#cb0;stroke-width:2;"/>
   <line x1="198" y1="47" x2="201.53553390593" y2="50.535533905933" style="stroke:#cb0;stroke-width:2;"/>
   <line x1="198" y1="47" x2="201.53553390593" y2="43.464466094067" style="stroke:#cb0;stroke-width:2;"/>
   <line x1="474" y1="402" x2="464" y2="402" style="stroke:#333;stroke-width:1;"/>
   <line x1="203" y1="47" x2="193" y2="47" style="stroke:#333;stroke-width:1;"/>
   <line x1="464" y1="402" x2="203" y2="47" style="stroke:#333;stroke-width:1;"/>
   <line x1="466.5" y1="402" x2="470.03553390593" y2="405.53553390593" style="stroke:#333;stroke-width:2;"/>
   <line x1="466.5" y1="402" x2="470.03553390593" y2="398.46446609407" style="stroke:#333;stroke-width:2;"/>
   <line x1="198" y1="47" x2="201.53553390593" y2="50.535533905933" style="stroke:#333;stroke-width:2;"/>
   <line x1="198" y1="47" x2="201.53553390593" y2="43.464466094067" style="stroke:#333;stroke-width:2;"/>
   <line x1="585" y1="382" x2="595" y2="382" style="stroke:#0bf;stroke-width:1;"/>
   <line x1="732" y1="612" x2="742" y2="612" style="stroke:#0bf;stroke-width:1;"/>
   <line x1="595" y1="382" x2="732" y2="612" style="stroke:#0bf;stroke-width:1;"/>
   <line x1="592.5" y1="382" x2="588.96446609407" y2="385.53553390593" style="stroke:#0bf;stroke-width:2;"/>
   <line x1="592.5" y1="382" x2="588.96446609407" y2="378.46446609407" style="stroke:#0bf;stroke-width:2;"/>
   <line x1="737" y1="612" x2="733.46446609407" y2="615.53553390593" style="stroke:#0bf;stroke-width:2;"/>
   <line x1="737" y1="612" x2="733.46446609407" y2="608.46446609407" style="stroke:#0bf;stroke-width:2;"/>
   <line x1="115" y1="357" x2="105" y2="357" style="stroke:#b0b;stroke-width:1;"/>
   <line x1="102" y1="47" x2="112" y2="47" style="stroke:#b0b;stroke-width:1;"/>
   <line x1="105" y1="357" x2="102" y2="47" style="stroke:#b0b;stroke-width:1;"/>
   <line x1="107.5" y1="357" x2="111.03553390593" y2="360.53553390593" style="stroke:#b0b;stroke-width:2;"/>
   <line x1="107.5" y1="357" x2="111.03553390593" y2="353.46446609407" style="stroke:#b0b;stroke-width:2;"/>
   <line x1="107" y1="47" x2="103.46446609407" y2="50.535533905933" style="stroke:#b0b;stroke-width:2;"/>
   <line x1="107" y1="47" x2="103.46446609407" y2="43.464466094067" style="stroke:#b0b;stroke-width:2;"/>
   <line x1="115" y1="377" x2="105" y2="377" style="stroke:#333;stroke-width:1;"/>
   <line x1="104" y1="574" x2="114" y2="574" style="stroke:#333;stroke-width:1;"/>
   <line x1="105" y1="377" x2="104" y2="574" style="stroke:#333;stroke-width:1;"/>
   <line x1="107.5" y1="377" x2="111.03553390593" y2="380.53553390593" style="stroke:#333;stroke-width:2;"/>
   <line x1="107.5" y1="377" x2="111.03553390593" y2="373.46446609407" style="stroke:#333;stroke-width:2;"/>
   <line x1="109" y1="574" x2="105.46446609407" y2="577.53553390593" style="stroke:#333;stroke-width:2;"/>
   <line x1="109" y1="574" x2="105.46446609407" y2="570.46446609407" style="stroke:#333;stroke-width:2;"/>
   <rect width="81" height="20" x="912" y="308" style="fill:#007;stroke:black;"/>
   <text width="81" height="20" x="917" y="322" style="fill:#fff;" font-family="Arial" font-size="16px"> categorie</text>
   <rect width="81" height="20" x="912" y="328" style="fill:#aea;stroke:black;"/>
   <text width="81" height="20" x="917" y="342" style="fill:black;" font-family="Arial" font-size="16px">id</text>
   <rect width="81" height="20" x="912" y="348" style="fill:none;stroke:black;"/>
   <text width="81" height="20" x="917" y="362" style="fill:black;" font-family="Arial" font-size="16px">libelle</text>
   <rect width="81" height="20" x="912" y="368" style="fill:none;stroke:black;"/>
   <text width="81" height="20" x="917" y="382" style="fill:black;" font-family="Arial" font-size="16px">created_at</text>
   <rect width="79" height="20" x="568" y="183" style="fill:#007;stroke:black;"/>
   <text width="79" height="20" x="573" y="197" style="fill:#fff;" font-family="Arial" font-size="16px"> promotion</text>
   <rect width="79" height="20" x="568" y="203" style="fill:#aea;stroke:black;"/>
   <text width="79" height="20" x="573" y="217" style="fill:black;" font-family="Arial" font-size="16px">id</text>
   <rect width="79" height="20" x="568" y="223" style="fill:none;stroke:black;"/>
   <text width="79" height="20" x="573" y="237" style="fill:black;" font-family="Arial" font-size="16px">libelle</text>
   <rect width="81" height="20" x="404" y="613" style="fill:#007;stroke:black;"/>
   <text width="81" height="20" x="409" y="627" style="fill:#fff;" font-family="Arial" font-size="16px"> question</text>
   <rect width="81" height="20" x="404" y="633" style="fill:#aea;stroke:black;"/>
   <text width="81" height="20" x="409" y="647" style="fill:black;" font-family="Arial" font-size="16px">id</text>
   <rect width="81" height="20" x="404" y="653" style="fill:none;stroke:black;"/>
   <text width="81" height="20" x="409" y="667" style="fill:black;" font-family="Arial" font-size="16px">quiz_id</text>
   <rect width="81" height="20" x="404" y="673" style="fill:none;stroke:black;"/>
   <text width="81" height="20" x="409" y="687" style="fill:black;" font-family="Arial" font-size="16px">libelle</text>
   <rect width="81" height="20" x="404" y="693" style="fill:none;stroke:black;"/>
   <text width="81" height="20" x="409" y="707" style="fill:black;" font-family="Arial" font-size="16px">qcm</text>
   <rect width="81" height="20" x="404" y="713" style="fill:none;stroke:black;"/>
   <text width="81" height="20" x="409" y="727" style="fill:black;" font-family="Arial" font-size="16px">created_at</text>
   <rect width="93" height="20" x="742" y="582" style="fill:#007;stroke:black;"/>
   <text width="93" height="20" x="747" y="596" style="fill:#fff;" font-family="Arial" font-size="16px"> quiz</text>
   <rect width="93" height="20" x="742" y="602" style="fill:#aea;stroke:black;"/>
   <text width="93" height="20" x="747" y="616" style="fill:black;" font-family="Arial" font-size="16px">id</text>
   <rect width="93" height="20" x="742" y="622" style="fill:none;stroke:black;"/>
   <text width="93" height="20" x="747" y="636" style="fill:black;" font-family="Arial" font-size="16px">categorie_id</text>
   <rect width="93" height="20" x="742" y="642" style="fill:none;stroke:black;"/>
   <text width="93" height="20" x="747" y="656" style="fill:black;" font-family="Arial" font-size="16px">libelle</text>
   <rect width="93" height="20" x="742" y="662" style="fill:none;stroke:black;"/>
   <text width="93" height="20" x="747" y="676" style="fill:black;" font-family="Arial" font-size="16px">duration</text>
   <rect width="93" height="20" x="742" y="682" style="fill:none;stroke:black;"/>
   <text width="93" height="20" x="747" y="696" style="fill:black;" font-family="Arial" font-size="16px">created_at</text>
   <rect width="113" height="20" x="858" y="19" style="fill:#007;stroke:black;"/>
   <text width="113" height="20" x="863" y="33" style="fill:#fff;" font-family="Arial" font-size="16px"> quiz_promotion</text>
   <rect width="113" height="20" x="858" y="39" style="fill:#aea;stroke:black;"/>
   <text width="113" height="20" x="863" y="53" style="fill:black;" font-family="Arial" font-size="16px">id</text>
   <rect width="113" height="20" x="858" y="59" style="fill:none;stroke:black;"/>
   <text width="113" height="20" x="863" y="73" style="fill:black;" font-family="Arial" font-size="16px">quiz_id</text>
   <rect width="113" height="20" x="858" y="79" style="fill:none;stroke:black;"/>
   <text width="113" height="20" x="863" y="93" style="fill:black;" font-family="Arial" font-size="16px">promotion_id</text>
   <rect width="117" height="20" x="114" y="544" style="fill:#007;stroke:black;"/>
   <text width="117" height="20" x="119" y="558" style="fill:#fff;" font-family="Arial" font-size="16px"> reponse</text>
   <rect width="117" height="20" x="114" y="564" style="fill:#aea;stroke:black;"/>
   <text width="117" height="20" x="119" y="578" style="fill:black;" font-family="Arial" font-size="16px">id</text>
   <rect width="117" height="20" x="114" y="584" style="fill:none;stroke:black;"/>
   <text width="117" height="20" x="119" y="598" style="fill:black;" font-family="Arial" font-size="16px">question_id</text>
   <rect width="117" height="20" x="114" y="604" style="fill:none;stroke:black;"/>
   <text width="117" height="20" x="119" y="618" style="fill:black;" font-family="Arial" font-size="16px">libelle</text>
   <rect width="117" height="20" x="114" y="624" style="fill:none;stroke:black;"/>
   <text width="117" height="20" x="119" y="638" style="fill:black;" font-family="Arial" font-size="16px">bonne_reponse</text>
   <rect width="117" height="20" x="114" y="644" style="fill:none;stroke:black;"/>
   <text width="117" height="20" x="119" y="658" style="fill:black;" font-family="Arial" font-size="16px">created_at</text>
   <rect width="81" height="20" x="112" y="17" style="fill:#007;stroke:black;"/>
   <text width="81" height="20" x="117" y="31" style="fill:#fff;" font-family="Arial" font-size="16px"> user</text>
   <rect width="81" height="20" x="112" y="37" style="fill:#aea;stroke:black;"/>
   <text width="81" height="20" x="117" y="51" style="fill:black;" font-family="Arial" font-size="16px">id</text>
   <rect width="81" height="20" x="112" y="57" style="fill:none;stroke:black;"/>
   <text width="81" height="20" x="117" y="71" style="fill:black;" font-family="Arial" font-size="16px">email</text>
   <rect width="81" height="20" x="112" y="77" style="fill:none;stroke:black;"/>
   <text width="81" height="20" x="117" y="91" style="fill:black;" font-family="Arial" font-size="16px">roles</text>
   <rect width="81" height="20" x="112" y="97" style="fill:none;stroke:black;"/>
   <text width="81" height="20" x="117" y="111" style="fill:black;" font-family="Arial" font-size="16px">password</text>
   <rect width="81" height="20" x="112" y="117" style="fill:none;stroke:black;"/>
   <text width="81" height="20" x="117" y="131" style="fill:black;" font-family="Arial" font-size="16px">prenom</text>
   <rect width="81" height="20" x="112" y="137" style="fill:none;stroke:black;"/>
   <text width="81" height="20" x="117" y="151" style="fill:black;" font-family="Arial" font-size="16px">nom</text>
   <rect width="81" height="20" x="112" y="157" style="fill:none;stroke:black;"/>
   <text width="81" height="20" x="117" y="171" style="fill:black;" font-family="Arial" font-size="16px">created_at</text>
   <rect width="113" height="20" x="451" y="15" style="fill:#007;stroke:black;"/>
   <text width="113" height="20" x="456" y="29" style="fill:#fff;" font-family="Arial" font-size="16px"> user_promotion</text>
   <rect width="113" height="20" x="451" y="35" style="fill:#aea;stroke:black;"/>
   <text width="113" height="20" x="456" y="49" style="fill:black;" font-family="Arial" font-size="16px">user_id</text>
   <rect width="113" height="20" x="451" y="55" style="fill:#aea;stroke:black;"/>
   <text width="113" height="20" x="456" y="69" style="fill:black;" font-family="Arial" font-size="16px">promotion_id</text>
   <rect width="111" height="20" x="474" y="352" style="fill:#007;stroke:black;"/>
   <text width="111" height="20" x="479" y="366" style="fill:#fff;" font-family="Arial" font-size="16px"> user_quiz_suivi</text>
   <rect width="111" height="20" x="474" y="372" style="fill:#aea;stroke:black;"/>
   <text width="111" height="20" x="479" y="386" style="fill:black;" font-family="Arial" font-size="16px">quiz_id</text>
   <rect width="111" height="20" x="474" y="392" style="fill:#aea;stroke:black;"/>
   <text width="111" height="20" x="479" y="406" style="fill:black;" font-family="Arial" font-size="16px">user_id</text>
   <rect width="111" height="20" x="474" y="412" style="fill:none;stroke:black;"/>
   <text width="111" height="20" x="479" y="426" style="fill:black;" font-family="Arial" font-size="16px">start_time</text>
   <rect width="111" height="20" x="474" y="432" style="fill:none;stroke:black;"/>
   <text width="111" height="20" x="479" y="446" style="fill:black;" font-family="Arial" font-size="16px">end_time</text>
   <rect width="99" height="20" x="115" y="307" style="fill:#007;stroke:black;"/>
   <text width="99" height="20" x="120" y="321" style="fill:#fff;" font-family="Arial" font-size="16px"> user_reponse</text>
   <rect width="99" height="20" x="115" y="327" style="fill:#aea;stroke:black;"/>
   <text width="99" height="20" x="120" y="341" style="fill:black;" font-family="Arial" font-size="16px">id</text>
   <rect width="99" height="20" x="115" y="347" style="fill:none;stroke:black;"/>
   <text width="99" height="20" x="120" y="361" style="fill:black;" font-family="Arial" font-size="16px">user_id</text>
   <rect width="99" height="20" x="115" y="367" style="fill:none;stroke:black;"/>
   <text width="99" height="20" x="120" y="381" style="fill:black;" font-family="Arial" font-size="16px">reponse_id</text>
</svg>
